<?xml version="1.0" encoding="iso-8859-1"?>
<!-- Generator: Adobe Illustrator 19.0.0, SVG Export Plug-In . SVG Version: 6.00 Build 0)  -->
<svg version="1.1" id="Capa_1" xmlns="http://www.w3.org/2000/svg" xmlns:xlink="http://www.w3.org/1999/xlink" x="0px" y="0px"
	 viewBox="0 0 511.896 511.896" style="enable-background:new 0 0 511.896 511.896;" xml:space="preserve">
<g>
	<g>
		<g>
			<path d="M275.244,361.895c-3.721,0-6.737,3.016-6.737,6.737v13.474c-0.001,1.787,0.708,3.501,1.972,4.765
				c1.264,1.264,2.978,1.973,4.765,1.972c1.787,0.001,3.501-0.708,4.765-1.972c1.264-1.264,1.973-2.978,1.972-4.765v-13.474
				C281.981,364.911,278.965,361.895,275.244,361.895z" fill="#c40201"/>
			<path d="M275.244,321.474c-3.721,0-6.737,3.016-6.737,6.737v13.474c-0.001,1.787,0.708,3.501,1.972,4.765
				s2.978,1.973,4.765,1.972c1.787,0.001,3.501-0.708,4.765-1.972c1.264-1.264,1.973-2.978,1.972-4.765v-13.474
				C281.981,324.49,278.965,321.474,275.244,321.474z" fill="#c40201"/>
			<path d="M275.244,240.632c-3.721,0-6.737,3.016-6.737,6.737v13.474c-0.001,1.787,0.708,3.501,1.972,4.765
				s2.978,1.973,4.765,1.972c1.787,0.001,3.501-0.708,4.765-1.972c1.264-1.264,1.973-2.978,1.972-4.765v-13.474
				C281.981,243.648,278.965,240.632,275.244,240.632z" fill="#c40201"/>
			<path d="M275.244,281.053c-3.721,0-6.737,3.016-6.737,6.737v13.474c-0.001,1.787,0.708,3.501,1.972,4.765
				c1.264,1.264,2.978,1.973,4.765,1.972c1.787,0.001,3.501-0.708,4.765-1.972c1.264-1.264,1.973-2.978,1.972-4.765V287.79
				C281.981,284.069,278.965,281.053,275.244,281.053z" fill="#c40201"/>
			<path d="M305.093,257.862c-3.721,0-6.737,3.016-6.737,6.737v13.474c-0.001,1.787,0.708,3.501,1.972,4.765
				s2.978,1.973,4.765,1.972c1.787,0.001,3.501-0.708,4.765-1.972c1.264-1.264,1.973-2.978,1.972-4.765v-13.474
				C311.829,260.878,308.813,257.862,305.093,257.862z" fill="#c40201"/>
			<path d="M305.093,298.283c-3.721,0-6.737,3.016-6.737,6.737v13.474c-0.001,1.787,0.708,3.501,1.972,4.765
				c1.264,1.264,2.978,1.973,4.765,1.972c1.787,0.001,3.501-0.708,4.765-1.972c1.264-1.264,1.973-2.978,1.972-4.765V305.02
				C311.829,301.299,308.813,298.283,305.093,298.283z" fill="#c40201"/>
			<path d="M305.093,338.704c-3.721,0-6.737,3.016-6.737,6.737v13.474c-0.001,1.787,0.708,3.501,1.972,4.765
				s2.978,1.973,4.765,1.972c1.787,0.001,3.501-0.708,4.765-1.972c1.264-1.264,1.973-2.978,1.972-4.765v-13.474
				C311.829,341.72,308.813,338.704,305.093,338.704z" fill="#c40201"/>
			<path d="M305.093,379.125c-3.721,0-6.737,3.016-6.737,6.737v13.474c-0.001,1.787,0.708,3.501,1.972,4.765
				c1.264,1.264,2.978,1.973,4.765,1.972c1.787,0.001,3.501-0.708,4.765-1.972c1.264-1.264,1.973-2.978,1.972-4.765v-13.474
				C311.829,382.141,308.813,379.125,305.093,379.125z" fill="#c40201"/>
			<path d="M334.941,275.099c-3.721,0-6.737,3.016-6.737,6.737v13.474c-0.001,1.787,0.708,3.501,1.972,4.765
				c1.264,1.264,2.978,1.973,4.765,1.972c1.787,0.001,3.501-0.708,4.765-1.972s1.973-2.978,1.972-4.765v-13.474
				C341.678,278.115,338.662,275.099,334.941,275.099z" fill="#c40201"/>
			<path d="M334.941,315.52c-3.721,0-6.737,3.016-6.737,6.737v13.474c-0.001,1.787,0.708,3.501,1.972,4.765
				c1.264,1.264,2.978,1.973,4.765,1.972c1.787,0.001,3.501-0.708,4.765-1.972c1.264-1.264,1.973-2.978,1.972-4.765v-13.474
				C341.678,318.536,338.662,315.52,334.941,315.52z" fill="#c40201"/>
			<path d="M334.941,396.362c-3.721,0-6.737,3.016-6.737,6.737v13.474c-0.001,1.787,0.708,3.501,1.972,4.765
				c1.264,1.264,2.978,1.973,4.765,1.972c1.787,0.001,3.501-0.708,4.765-1.972c1.264-1.264,1.973-2.978,1.972-4.765v-13.474
				C341.678,399.378,338.662,396.362,334.941,396.362z" fill="#c40201"/>
			<path d="M334.941,355.941c-3.721,0-6.737,3.016-6.737,6.737v13.474c-0.001,1.787,0.708,3.501,1.972,4.765
				c1.264,1.264,2.978,1.973,4.765,1.972c1.787,0.001,3.501-0.708,4.765-1.972s1.973-2.978,1.972-4.765v-13.474
				C341.678,358.957,338.662,355.941,334.941,355.941z" fill="#c40201"/>
			<path d="M165.796,234.349c1.787,0.001,3.501-0.708,4.765-1.972c1.264-1.264,1.973-2.978,1.972-4.765v-13.474
				c0-3.721-3.016-6.737-6.737-6.737s-6.737,3.016-6.737,6.737v13.474c-0.001,1.787,0.708,3.501,1.972,4.765
				C162.295,233.64,164.009,234.35,165.796,234.349z" fill="#c40201"/>
			<path d="M165.796,153.507c1.787,0.001,3.501-0.708,4.765-1.972c1.264-1.264,1.973-2.978,1.972-4.765v-13.474
				c0-3.721-3.016-6.737-6.737-6.737s-6.737,3.016-6.737,6.737v13.474c-0.001,1.787,0.708,3.501,1.972,4.765
				C162.295,152.798,164.009,153.508,165.796,153.507z" fill="#c40201"/>
			<path d="M165.796,113.086c1.787,0.001,3.501-0.708,4.765-1.972c1.264-1.264,1.973-2.978,1.972-4.765V92.875
				c0-3.721-3.016-6.737-6.737-6.737s-6.737,3.016-6.737,6.737v13.474c-0.001,1.787,0.708,3.501,1.972,4.765
				C162.295,112.377,164.009,113.087,165.796,113.086z" fill="#c40201"/>
			<path d="M165.796,193.928c1.787,0.001,3.501-0.708,4.765-1.972c1.264-1.264,1.973-2.978,1.972-4.765v-13.474
				c0-3.721-3.016-6.737-6.737-6.737s-6.737,3.016-6.737,6.737v13.474c-0.001,1.787,0.708,3.501,1.972,4.765
				C162.295,193.219,164.009,193.929,165.796,193.928z" fill="#c40201"/>
			<path d="M165.796,274.77c1.787,0.001,3.501-0.708,4.765-1.972c1.264-1.264,1.973-2.978,1.972-4.765v-13.474
				c0-3.721-3.016-6.737-6.737-6.737s-6.737,3.016-6.737,6.737v13.474c-0.001,1.787,0.708,3.501,1.972,4.765
				C162.295,274.061,164.009,274.771,165.796,274.77z" fill="#c40201"/>
			<path d="M165.796,315.191c1.787,0.001,3.501-0.708,4.765-1.972c1.264-1.264,1.973-2.978,1.972-4.765V294.98
				c0-3.721-3.016-6.737-6.737-6.737s-6.737,3.016-6.737,6.737v13.474c-0.001,1.787,0.708,3.501,1.972,4.765
				C162.295,314.482,164.009,315.192,165.796,315.191z" fill="#c40201"/>
			<path d="M195.645,251.579c1.787,0.001,3.501-0.708,4.765-1.972s1.973-2.978,1.972-4.765v-13.474c0-3.721-3.016-6.737-6.737-6.737
				c-3.721,0-6.737,3.016-6.737,6.737v13.474c-0.001,1.787,0.708,3.501,1.972,4.765S193.858,251.58,195.645,251.579z" fill="#c40201"/>
			<path d="M195.645,211.158c1.787,0.001,3.501-0.708,4.765-1.972c1.264-1.264,1.973-2.978,1.972-4.765v-13.474
				c0-3.721-3.016-6.737-6.737-6.737c-3.721,0-6.737,3.016-6.737,6.737v13.474c-0.001,1.787,0.708,3.501,1.972,4.765
				C192.144,210.45,193.858,211.159,195.645,211.158z" fill="#c40201"/>
			<path d="M195.645,130.316c1.787,0.001,3.501-0.708,4.765-1.972c1.264-1.264,1.973-2.978,1.972-4.765v-13.474
				c0-3.721-3.016-6.737-6.737-6.737c-3.721,0-6.737,3.016-6.737,6.737v13.474c-0.001,1.787,0.708,3.501,1.972,4.765
				C192.144,129.608,193.858,130.317,195.645,130.316z" fill="#c40201"/>
			<path d="M195.645,292c1.787,0.001,3.501-0.708,4.765-1.972c1.264-1.264,1.973-2.978,1.972-4.765V271.79
				c0-3.721-3.016-6.737-6.737-6.737c-3.721,0-6.737,3.016-6.737,6.737v13.474c-0.001,1.787,0.708,3.501,1.972,4.765
				C192.144,291.292,193.858,292.001,195.645,292z" fill="#c40201"/>
			<path d="M195.645,170.737c1.787,0.001,3.501-0.708,4.765-1.972s1.973-2.978,1.972-4.765v-13.474c0-3.721-3.016-6.737-6.737-6.737
				c-3.721,0-6.737,3.016-6.737,6.737V164c-0.001,1.787,0.708,3.501,1.972,4.765S193.858,170.738,195.645,170.737z" fill="#c40201"/>
			<path d="M225.494,187.974c1.787,0.001,3.501-0.708,4.765-1.972c1.264-1.264,1.973-2.978,1.972-4.765v-13.474
				c0-3.721-3.016-6.737-6.737-6.737s-6.737,3.016-6.737,6.737v13.474c-0.001,1.787,0.708,3.501,1.972,4.765
				C221.993,187.266,223.707,187.975,225.494,187.974z" fill="#c40201"/>
			<path d="M225.494,268.816c1.787,0.001,3.501-0.708,4.765-1.972c1.264-1.264,1.973-2.978,1.972-4.765v-13.474
				c0-3.721-3.016-6.737-6.737-6.737s-6.737,3.016-6.737,6.737v13.474c-0.001,1.787,0.708,3.501,1.972,4.765
				C221.993,268.108,223.707,268.817,225.494,268.816z" fill="#c40201"/>
			<path d="M225.494,147.553c1.787,0.001,3.501-0.708,4.765-1.972c1.264-1.264,1.973-2.978,1.972-4.765v-13.474
				c0-3.721-3.016-6.737-6.737-6.737s-6.737,3.016-6.737,6.737v13.474c-0.001,1.787,0.708,3.501,1.972,4.765
				C221.993,146.845,223.707,147.554,225.494,147.553z" fill="#c40201"/>
			<path d="M225.494,228.395c1.787,0.001,3.501-0.708,4.765-1.972c1.264-1.264,1.973-2.978,1.972-4.765v-13.474
				c0-3.721-3.016-6.737-6.737-6.737s-6.737,3.016-6.737,6.737v13.474c-0.001,1.787,0.708,3.501,1.972,4.765
				C221.993,227.687,223.707,228.396,225.494,228.395z" fill="#c40201"/>
			<path d="M225.494,349.658c1.787,0.001,3.501-0.708,4.765-1.972c1.264-1.264,1.973-2.978,1.972-4.765v-13.474
				c0-3.721-3.016-6.737-6.737-6.737s-6.737,3.016-6.737,6.737v13.474c-0.001,1.787,0.708,3.501,1.972,4.765
				C221.993,348.95,223.707,349.659,225.494,349.658z" fill="#c40201"/>
			<path d="M225.494,309.237c1.787,0.001,3.501-0.708,4.765-1.972c1.264-1.264,1.973-2.978,1.972-4.765v-13.474
				c0-3.721-3.016-6.737-6.737-6.737s-6.737,3.016-6.737,6.737V302.5c-0.001,1.787,0.708,3.501,1.972,4.765
				C221.993,308.529,223.707,309.238,225.494,309.237z" fill="#c40201"/>
			<path d="M255.343,164.783c1.787,0.001,3.501-0.708,4.765-1.972s1.973-2.978,1.972-4.765v-13.474c0-3.721-3.016-6.737-6.737-6.737
				c-3.721,0-6.737,3.016-6.737,6.737v13.474c-0.001,1.787,0.708,3.501,1.972,4.765S253.555,164.784,255.343,164.783z" fill="#c40201"/>
			<path d="M433.92,220.955c-0.018-0.249-0.051-0.497-0.099-0.743c-0.117-0.695-0.343-1.368-0.67-1.993
				c-0.03-0.055-0.027-0.118-0.058-0.173c-0.026-0.046-0.073-0.069-0.1-0.113c-0.388-0.619-0.875-1.17-1.441-1.632
				c-0.172-0.148-0.352-0.286-0.539-0.414c-0.14-0.096-0.252-0.222-0.4-0.307l-76.211-43.976V84.197c0-0.157-0.05-0.304-0.061-0.46
				c-0.018-0.249-0.051-0.497-0.099-0.743c-0.117-0.695-0.343-1.368-0.67-1.993c-0.03-0.055-0.027-0.118-0.058-0.173
				c-0.026-0.046-0.073-0.069-0.1-0.114c-0.387-0.618-0.874-1.169-1.439-1.63c-0.172-0.148-0.353-0.286-0.539-0.415
				c-0.141-0.096-0.253-0.222-0.401-0.308L216.671,0.796c-0.246-0.101-0.499-0.186-0.756-0.255c-0.433-0.2-0.886-0.353-1.352-0.455
				c-0.838-0.116-1.688-0.115-2.526,0.003c-0.458,0.102-0.905,0.253-1.331,0.45c-0.258,0.069-0.512,0.155-0.759,0.257
				l-67.454,38.947c-0.683,0.412-1.286,0.944-1.78,1.57c-0.128,0.154-0.244,0.303-0.357,0.467c-0.447,0.62-0.785,1.311-0.998,2.045
				l-0.009,0.065c-0.146,0.551-0.221,1.119-0.224,1.689v281.253L121.56,337c-0.191,0.092-0.632,0.316-0.809,0.428l-27.784,16.107
				c-9.439,3.559-15.052,13.284-15.052,26.328c-0.001,2.407,1.284,4.632,3.368,5.836l119.401,68.873
				c0.059,0.037,0.104,0.092,0.165,0.127l97.557,56.271c1.667,1.011,3.704,1.206,5.533,0.53l0.107-0.019
				c0.045-0.016,0.074-0.057,0.119-0.074c0.344-0.11,0.678-0.248,1-0.412l33.601-19.399l17.419,10.031
				c2.66,1.54,6.026,1.072,8.166-1.135l66.262-38.267c0.22-0.17,0.428-0.353,0.624-0.55c0.378-0.268,0.726-0.575,1.04-0.916
				c0.522-0.668,0.948-1.407,1.266-2.193c0.141-0.446,0.233-0.905,0.276-1.371c0.072-0.265,0.126-0.534,0.162-0.805V221.415
				C433.981,221.257,433.93,221.11,433.92,220.955z M213.31,14.416L334.198,84.2l-53.974,31.164L159.338,45.579L213.31,14.416z
				 M340.928,95.875v67.928l-19.757-11.375c-0.221-0.089-0.447-0.165-0.676-0.228c-0.466-0.22-0.955-0.385-1.459-0.491
				c-0.833-0.113-1.678-0.108-2.51,0.013c-0.446,0.1-0.879,0.247-1.294,0.437c-0.265,0.07-0.524,0.158-0.778,0.262l-27.493,15.874
				v-41.26L340.928,95.875z M273.487,127.033v49.042L247,191.369c-0.683,0.412-1.286,0.944-1.78,1.57
				c-0.128,0.154-0.244,0.303-0.357,0.467c-0.447,0.62-0.785,1.311-0.998,2.045l-0.009,0.065c-0.146,0.551-0.221,1.119-0.224,1.689
				v179.624c-3.507-4.093-7.642-7.604-12.25-10.4c-1.2-0.697-2.436-1.33-3.704-1.895c-2.332-1.052-4.795-1.787-7.322-2.184
				c-2.649-0.366-5.343-0.23-7.942,0.398c-3.219-11.248-8.951-21.618-16.763-30.327c1.786,0,3.499-0.71,4.761-1.973
				c1.262-1.263,1.971-2.976,1.97-4.762V312.21c0-3.721-3.016-6.737-6.737-6.737c-3.721,0-6.737,3.016-6.737,6.737v13.474
				c0,0.075,0.04,0.136,0.042,0.211c-2.323-1.993-4.813-3.783-7.444-5.349c-8.267-5.681-18.963-6.433-27.944-1.967
				c-0.14,0.068-0.294,0.066-0.43,0.144l-0.533,0.308l0-261.782L273.487,127.033z M242.836,399.665l0.066-0.039
				c0.049-0.025,0.086-0.067,0.134-0.093l0.097-0.065c0.125-0.072,0.25-0.151,0.368-0.23c0.204-0.099,0.375-0.191,0.447-0.23
				c0.747-0.262,1.526-0.421,2.316-0.474c1.241-0.02,2.479,0.135,3.678,0.461c1.509,0.452,2.958,1.084,4.316,1.882
				c7.92,5.174,14.094,12.619,17.713,21.36l-21.976,12.676c-2.249-4.833-5.063-9.383-8.382-13.555
				c-0.079-0.099-0.158-0.197-0.243-0.29c-3.893-4.967-8.679-9.164-14.112-12.375l-0.033-0.017L242.836,399.665z M213.616,400.968
				c-4.253-6.07-9.704-11.205-16.017-15.087l-0.162-0.083l13.417-7.746l0.08-0.047l2.928-1.69l0.047-0.041
				c0.226-0.091,0.448-0.193,0.663-0.307c1.242-0.431,2.576-0.529,3.868-0.283c1.277,0.214,2.52,0.594,3.697,1.132
				c0.815,0.36,1.61,0.764,2.382,1.211c4.329,2.665,8.112,6.127,11.15,10.202L213.616,400.968z M159.882,330.395
				c0.044-0.026,0.066-0.07,0.109-0.096l0.109-0.042c4.882-2.047,10.489-1.3,14.664,1.954c12.815,8.467,21.862,21.559,25.25,36.541
				l-21.596,12.468c-4.874-17.015-15.787-31.669-30.693-41.213c-0.816-0.468-1.584-0.819-2.37-1.213L159.882,330.395z
				 M201.783,407.79c-0.615,0.408-1.208,0.85-1.776,1.322c-0.733,0.582-1.387,1.257-1.947,2.007
				c-0.487,0.566-0.901,1.059-1.382,1.711c-0.189,0.253-0.361,0.519-0.513,0.796c-0.401,0.614-0.758,1.256-1.066,1.921
				c-0.303,0.6-0.564,1.22-0.783,1.855c-0.315,0.627-0.562,1.287-0.737,1.967c-0.459,1.56-0.792,3.156-0.993,4.77
				c-0.02,0.125-0.039,0.309-0.059,0.5c-0.164,1.36-0.246,2.729-0.243,4.099c0,0.941,0.007,1.974,0.125,3.395
				c0.085,0.753,0.212,1.54,0.327,2.318L91.619,376.105c-0.025-4.366,2.522-8.338,6.5-10.138c0.184-0.059,0.375-0.132,0.559-0.211
				c4.374-0.62,8.821,0.425,12.461,2.928c2.084,1.206,4.653,1.208,6.739,0.005s3.372-3.427,3.373-5.834
				c-0.53-4.746,1.183-9.467,4.632-12.77l0.099-0.066l1.309-0.796c0.072-0.026,0.145-0.053,0.217-0.086
				c4.654-1.221,9.61-0.286,13.5,2.546c14.205,9.343,23.722,24.328,26.138,41.158c0.289,2.485,1.932,4.606,4.265,5.507
				c2.334,0.901,4.975,0.435,6.86-1.211c0.164-0.132,0.362-0.296,0.461-0.388c0.275-0.267,0.572-0.509,0.888-0.724l0.251-0.129
				c0.086-0.045,0.178-0.06,0.262-0.108l0.424-0.245l0.266-0.11c1.248-0.438,2.591-0.531,3.888-0.269
				c1.27,0.212,2.506,0.59,3.678,1.125c0.807,0.356,1.596,0.753,2.362,1.191c4.321,2.679,8.1,6.147,11.138,10.224L201.783,407.79z
				 M209.468,444.112l-0.132-0.303c-0.079-0.178-0.164-0.362-0.263-0.539c-0.197-0.507-0.388-1.02-0.552-1.507
				c-0.103-0.294-0.228-0.581-0.375-0.856c-0.599-1.836-1.151-3.632-1.539-5.395l-0.197-0.974l-0.145-0.737
				c-0.171-1.118-0.29-2.184-0.395-3.059c-0.053-0.664-0.046-1.329-0.046-1.941c0-0.893,0.053-1.785,0.158-2.671
				c0.02-0.112,0.039-0.263,0.053-0.428c0.121-0.886,0.317-1.759,0.586-2.612c0.072-0.204,0.145-0.408,0.211-0.612l0.118-0.309
				l0.29-0.573c0.059-0.112,0.342-0.592,0.395-0.711c0.178-0.254,0.338-0.52,0.48-0.796l0.026,0.02l0.704-0.711
				c0.181-0.157,0.364-0.315,0.549-0.47c0.08-0.045,0.168-0.06,0.247-0.109l0.573-0.33c0.115-0.04,0.231-0.079,0.342-0.124
				c0.627-0.226,1.287-0.348,1.954-0.362c1.251-0.022,2.499,0.138,3.704,0.474c1.515,0.448,2.969,1.083,4.329,1.888
				c3.903,2.347,7.349,5.38,10.171,8.954c0.217,0.309,0.457,0.602,0.717,0.875c4.211,5.373,7.333,11.516,9.191,18.086
				c0.703,2.59,2.876,4.516,5.532,4.901c2.656,0.386,5.287-0.842,6.698-3.125c0.848-1.452,2.11-2.618,3.625-3.349
				c0.401-0.2,0.826-0.35,1.263-0.447c4.426-0.707,8.953,0.328,12.632,2.888c2.329,1.36,4.504,2.968,6.487,4.796
				c0.691,0.586,1.342,1.178,2.033,1.868c10.556,10.224,16.936,24.007,17.901,38.672L209.468,444.112z M329.766,481.23
				l-19.64,11.339c-1.313-16.313-8.112-31.701-19.288-43.657c-0.107-0.124-0.147-0.281-0.265-0.399l-0.132-0.132
				c-0.073-0.073-0.17-0.094-0.245-0.163c-0.618-0.653-1.194-1.355-1.834-1.982c-0.914-0.914-1.829-1.757-2.678-2.467
				c-2.644-2.416-5.543-4.538-8.645-6.329c-0.817-0.472-1.621-0.766-2.435-1.172l13.512-7.795l0.041-0.013l1.138-0.666l0.692-0.4
				c4.8-1.626,10.093-0.771,14.137,2.283c2.329,1.36,4.504,2.968,6.487,4.796c0.697,0.592,1.349,1.191,2.033,1.868
				c10.63,10.28,17.018,24.173,17.901,38.934C330.538,477.286,330.276,479.286,329.766,481.23L329.766,481.23z M343.721,478.905
				c0.108-1.206,0.299-2.371,0.299-3.629c-0.862-18.378-8.702-35.736-21.921-48.533c-0.914-0.908-1.816-1.743-2.658-2.447
				c-2.642-2.414-5.539-4.533-8.638-6.322c-7.977-5.511-18.256-6.446-27.097-2.467c-4.758-10.84-12.664-19.999-22.692-26.29
				c-1.261-0.725-2.566-1.37-3.908-1.933V208.882l95.961,55.368l0,220.036L343.721,478.905z M359.802,252.582l-76.132-43.936
				c-0.036-0.021-0.054-0.059-0.091-0.08L263.852,197.2l53.963-31.158l95.961,55.377L359.802,252.582z M420.507,452.498
				l-53.967,31.167V264.253l53.967-31.16V452.498z" fill="#0d2049"/>
		</g>
	</g>
</g>
<g>
</g>
<g>
</g>
<g>
</g>
<g>
</g>
<g>
</g>
<g>
</g>
<g>
</g>
<g>
</g>
<g>
</g>
<g>
</g>
<g>
</g>
<g>
</g>
<g>
</g>
<g>
</g>
<g>
</g>
</svg>
