<?xml version="1.0" encoding="iso-8859-1"?>
<!-- Generator: Adobe Illustrator 19.0.0, SVG Export Plug-In . SVG Version: 6.00 Build 0)  -->
<svg version="1.1" id="Capa_1" xmlns="http://www.w3.org/2000/svg" xmlns:xlink="http://www.w3.org/1999/xlink" x="0px" y="0px"
	 viewBox="0 0 512 512" style="enable-background:new 0 0 512 512;" xml:space="preserve">
<g>
	<g>
		<g>
			<path d="M472.667,228.629c1.49,1.149,3.318,1.772,5.2,1.771h25.6c2.263,0.001,4.434-0.898,6.035-2.499
				c1.6-1.6,2.499-3.771,2.499-6.035v-25.6c-0.001-2.669-1.249-5.185-3.375-6.8L435.2,133.765V51.2
				c9.421-0.011,17.056-7.646,17.067-17.067V17.067C452.256,7.645,444.621,0.011,435.2,0h-76.8
				c-9.421,0.011-17.056,7.645-17.067,17.067v17.067c0.011,9.421,7.645,17.056,17.067,17.067v24.303l-97.242-73.77
				c-0.15-0.114-0.332-0.133-0.487-0.235c-0.499-0.31-1.029-0.566-1.582-0.763c-0.475-0.214-0.968-0.382-1.474-0.504
				c-1.075-0.119-2.159-0.119-3.233,0c-0.503,0.121-0.993,0.288-1.465,0.5c-0.558,0.198-1.092,0.457-1.594,0.77
				c-0.153,0.101-0.333,0.119-0.481,0.232L3.375,189.467c-2.126,1.615-3.374,4.13-3.375,6.8v25.6
				c-0.001,2.263,0.898,4.434,2.499,6.035c1.6,1.6,3.771,2.499,6.035,2.499h25.6c1.881,0.001,3.71-0.622,5.2-1.771l11.867-9.128
				v198.632H17.067C7.645,418.144,0.011,425.779,0,435.2v68.267c-0.001,2.263,0.898,4.434,2.499,6.035
				c1.6,1.6,3.771,2.499,6.035,2.499h494.933c2.263,0.001,4.434-0.898,6.035-2.499c1.6-1.6,2.499-3.771,2.499-6.035V435.2
				c-0.011-9.421-7.645-17.056-17.067-17.067H460.8V219.501L472.667,228.629z M51.2,494.933H17.067V435.2H51.2V494.933z
				 M358.4,17.067h76.8l0.009,17.067H358.4V17.067z M418.133,51.2v69.618L375.467,88.45V51.2H418.133z M102.4,494.933H68.267V435.2
				H102.4V494.933z M153.6,494.933h-34.133V435.2H153.6V494.933z M443.733,494.933H170.667V435.2
				c-0.011-9.421-7.646-17.056-17.067-17.067H68.267v-211.76L256,61.963l187.733,144.41V494.933z M494.933,435.2v59.733H460.8V435.2
				H494.933z M261.2,44.438c-0.162-0.125-0.358-0.148-0.525-0.259c-0.962-0.563-1.996-0.992-3.073-1.277
				c-1.074-0.134-2.161-0.132-3.234,0.005c-1.071,0.287-2.099,0.716-3.055,1.278c-0.163,0.109-0.355,0.131-0.512,0.253
				L31.233,213.333H17.067v-12.829L256,19.246l238.933,181.258v12.829h-14.167L261.2,44.438z"/>
			<path d="M197.575,180.437c-24.728-4.492-50.175,2.201-69.492,18.279c-33.408,29.179-34.133,86.733-1.908,143
				c24.85,46.504,88.767,88.5,124.658,109.392c2.653,1.544,5.931,1.544,8.583,0c35.892-20.892,99.808-62.887,124.542-109.171
				c32.341-56.487,31.617-114.042-1.792-143.221c-19.315-16.08-44.764-22.774-69.491-18.279
				c-23.092,3.984-43.73,16.792-57.55,35.717C241.305,197.229,220.667,184.421,197.575,180.437z M262.533,235.896
				c10.848-20.274,30.348-34.496,52.967-38.63c19.68-3.526,39.919,1.698,55.433,14.309c27.117,23.675,26.4,72.654-1.908,122.1
				c-22.567,42.229-84.167,82.492-113.9,100.158c-29.733-17.667-91.333-57.941-114.017-100.379
				c-28.192-49.225-28.908-98.204-1.792-121.879c12.225-10.106,27.649-15.529,43.508-15.296c3.995-0.001,7.984,0.33,11.925,0.988
				c22.619,4.134,42.119,18.355,52.966,38.629c1.645,2.486,4.427,3.981,7.408,3.981S260.888,238.382,262.533,235.896z"/>
		</g>
	</g>
</g>
<g>
</g>
<g>
</g>
<g>
</g>
<g>
</g>
<g>
</g>
<g>
</g>
<g>
</g>
<g>
</g>
<g>
</g>
<g>
</g>
<g>
</g>
<g>
</g>
<g>
</g>
<g>
</g>
<g>
</g>
</svg>
