<?xml version="1.0" encoding="iso-8859-1"?>
<!-- Generator: Adobe Illustrator 19.0.0, SVG Export Plug-In . SVG Version: 6.00 Build 0)  -->
<svg version="1.1" id="Capa_1" xmlns="http://www.w3.org/2000/svg" xmlns:xlink="http://www.w3.org/1999/xlink" x="0px" y="0px"
	 viewBox="0 0 512 512" style="enable-background:new 0 0 512 512;" xml:space="preserve">
<g>
	<g>
		<g>
			<path d="M324.625,296.99c-2.085,1.203-3.369,3.428-3.368,5.836v40.928c-0.001,2.407,1.284,4.632,3.368,5.836l53.566,30.921
				c2.085,1.204,4.653,1.203,6.737,0c2.084-1.204,3.368-3.428,3.368-5.835v-40.928c0.001-2.407-1.284-4.632-3.368-5.836
				l-53.566-30.921C329.276,295.793,326.711,295.793,324.625,296.99z M374.823,363.01l-13.309-7.683v-4.913l13.309,7.683V363.01z
				 M361.513,329.954l13.309,7.681v4.901l-13.309-7.682V329.954z M334.73,314.497l13.309,7.681v4.899l-13.309-7.683V314.497z
				 M334.73,334.954l13.309,7.683v4.912l-13.309-7.683V334.954z" fill="#c40201"/>
			<path d="M511.922,298.151c-0.041-0.426-0.124-0.848-0.247-1.258c-0.099-0.437-0.242-0.863-0.428-1.271
				c-0.07-0.143-0.067-0.301-0.148-0.44c-0.169-0.218-0.351-0.425-0.547-0.62c-0.142-0.251-0.3-0.492-0.473-0.722l-80.309-82.204
				c-0.137-0.141-0.322-0.216-0.47-0.343c-0.24-0.204-0.495-0.389-0.762-0.556c-0.699-0.427-1.461-0.741-2.258-0.931
				c-0.155-0.032-0.292-0.116-0.45-0.137l-61.04-8.005v-54.929l9.993-5.771c2.085-1.203,3.369-3.428,3.368-5.836v-25.572
				c0-0.138-0.07-0.262-0.078-0.399c-0.114-0.869-0.341-1.719-0.675-2.529c-0.07-0.143-0.067-0.301-0.148-0.44
				c-0.168-0.217-0.35-0.423-0.545-0.617c-0.142-0.252-0.301-0.494-0.475-0.725l-80.316-82.204
				c-0.133-0.136-0.312-0.208-0.455-0.332c-0.246-0.209-0.507-0.399-0.781-0.569c-0.692-0.422-1.446-0.734-2.235-0.922
				c-0.162-0.033-0.305-0.122-0.47-0.144l-80.309-10.533c-0.241,0.001-0.481,0.016-0.72,0.045c-0.493-0.026-0.987,0.005-1.473,0.092
				c-0.456,0.1-0.9,0.249-1.323,0.446c-0.247,0.067-0.49,0.149-0.728,0.245l-70.178,40.513c-0.197,0.154-0.384,0.319-0.562,0.495
				c-0.161,0.117-0.364,0.153-0.514,0.285l-58.404-7.675c-0.186-0.027-0.355,0.044-0.539,0.033c-0.556-0.038-1.114-0.003-1.66,0.102
				c-0.433,0.097-0.855,0.24-1.259,0.425c-0.251,0.068-0.498,0.151-0.739,0.249L3.388,85.918c-0.188,0.147-0.367,0.305-0.536,0.473
				c-0.174,0.126-0.394,0.167-0.556,0.31c-0.137,0.167-0.266,0.341-0.386,0.521c-0.338,0.361-0.634,0.76-0.882,1.189
				c-0.217,0.353-0.399,0.726-0.544,1.114c-0.15,0.45-0.25,0.916-0.3,1.388C0.104,91.193,0.042,91.478,0,91.767v25.592
				c0.002,3.387,2.516,6.248,5.875,6.684l7.533,0.965v138.239c-0.001,2.407,1.284,4.632,3.368,5.836l40.165,23.204l0.145,0.074
				l52.986,30.595c0.131,0.088,0.259,0.18,0.396,0.259l39.961,23.031c0.066,0.041,0.116,0.102,0.183,0.141l133.836,77.283
				c0.075,0.044,0.16,0.058,0.237,0.098l0.086,0.06l133.592,77.132c2.085,1.202,4.652,1.202,6.737,0
				c0.08-0.047,0.139-0.117,0.217-0.167l69.948-40.366c0.22-0.17,0.428-0.353,0.624-0.55c0.378-0.268,0.726-0.575,1.039-0.916
				c0.522-0.669,0.948-1.407,1.266-2.193c0.141-0.446,0.233-0.905,0.276-1.371c0.072-0.265,0.126-0.534,0.162-0.805V335.732
				l10-5.774c2.085-1.203,3.369-3.428,3.368-5.836v-25.572C512,298.412,511.93,298.288,511.922,298.151z M494.382,297.051
				l-58.148,33.566l-70.57-72.264l58.127-33.556L494.382,297.051z M404.383,220.441l-51.013,29.45l-58.325-7.672l50.974-29.432
				L404.383,220.441z M294.559,226.938V178.44l1.882,1.926l0.02,0.013c0.573,0.564,1.244,1.019,1.98,1.343
				c0.175,0.081,0.344,0.146,0.524,0.212c0.707,0.27,1.454,0.42,2.211,0.442l0.081,0.016l0.111-0.022
				c0.715-0.024,1.422-0.163,2.093-0.411c0.113-0.039,0.231-0.022,0.343-0.067c0.149-0.061,0.263-0.171,0.406-0.241
				c0.132-0.065,0.274-0.092,0.403-0.167l46.704-26.969v45.381l-5.803-0.761c-0.234,0.001-0.469,0.016-0.702,0.044
				c-0.498-0.026-0.998,0.005-1.489,0.094c-0.448,0.099-0.884,0.246-1.3,0.439c-0.254,0.068-0.503,0.152-0.746,0.252
				L294.559,226.938z M364.678,131.24l-56.684,32.73v-10.024l56.684-32.721V131.24z M360.533,108.057l-58.12,33.55l-70.599-72.247
				l58.125-33.555L360.533,108.057z M212.165,23.792l58.368,7.656l-50.984,29.433l-58.391-7.642L212.165,23.792z M78.273,58.241
				l55.582,7.304v1.951l-48.171,27.81l-58.374-7.64L78.273,58.241z M53.566,274.776l-26.684-15.417v-4.91l26.684,15.406V274.776z
				 M107.105,274.13c0.153-2.506-1.113-4.886-3.276-6.16l-4.461-2.579c-3.219-1.864-7.34-0.765-9.204,2.454s-0.765,7.34,2.454,9.204
				l4.461,2.579c1.934,1.135,4.307,1.227,6.323,0.244c2.016-0.982,3.406-2.909,3.703-5.131v30.921L67.04,282.526v-56.069
				l40.066,23.132V274.13z M147.237,328.857l-26.658-15.365v-4.944l26.658,15.391V328.857z M147.237,308.378l-26.658-15.391v-47.287
				c0.001-2.407-1.284-4.632-3.368-5.836l-53.539-30.914c-2.085-1.204-4.653-1.203-6.737,0s-3.368,3.428-3.368,5.835v39.508
				l-26.684-15.406V126.806l57.007,7.441l63.349,64.842V308.378z M147.237,179.81l-55.349-56.649
				c-1.055-1.081-2.443-1.774-3.941-1.967l-66.105-8.632c-0.275-0.072-0.554-0.127-0.835-0.164l-7.533-0.967V99.444l70.408,9.211
				l63.355,64.843V179.81z M147.237,154.218l-49.28-50.438l35.92-20.736c0.051,3.339,2.543,6.136,5.854,6.571l7.507,0.961
				L147.237,154.218z M154.862,77.971l-7.533-0.967V65.017l70.408,9.217l76.783,78.572v6.323L225.744,88.74
				c-1.055-1.085-2.446-1.781-3.947-1.974l-66.099-8.632C155.423,78.063,155.144,78.008,154.862,77.971z M187.421,352.078
				l-26.684-15.408v-4.938l26.684,15.406V352.078z M240.961,382.964l-40.066-23.131v-66.25l40.066,23.132v29.491
				c0.109-2.463-1.151-4.786-3.276-6.037l-4.467-2.579c-2.085-1.205-4.654-1.206-6.74-0.002c-2.086,1.204-3.37,3.429-3.369,5.837
				c0.001,2.408,1.286,4.633,3.372,5.835l4.467,2.579c1.93,1.135,4.3,1.228,6.313,0.248c2.013-0.98,3.402-2.902,3.7-5.121V382.964z
				 M281.086,406.161l-26.651-15.389v-4.958l26.651,15.354V406.161z M281.086,234.717l-9.987,5.767
				c-0.173,0.137-0.339,0.283-0.496,0.438c-1.075,0.792-1.901,1.874-2.383,3.118c-0.163,0.755-0.326,1.511-0.489,2.266v25.592
				c0.001,3.377,2.501,6.231,5.849,6.678l7.507,0.988v106.057l-26.651-15.352v-57.443c0.001-2.407-1.284-4.632-3.368-5.836
				l-53.539-30.914c-2.085-1.204-4.653-1.203-6.737,0c-2.084,1.204-3.368,3.428-3.368,5.835v49.666l-26.684-15.406v-119.8
				c0-0.046-0.026-0.085-0.026-0.131v-25.256c0.003-0.092,0.001-0.179,0-0.271V92.375l57.02,7.444l63.355,64.833V234.717z
				 M321.257,429.332l-26.697-15.414v-4.943l26.697,15.446V429.332z M360.336,431.622l4.461,2.572
				c1.938,1.133,4.316,1.22,6.332,0.232s3.403-2.921,3.695-5.147v30.968l-40.092-23.145v-56.099l40.092,23.151l0,24.608
				c0.178-2.536-1.096-4.954-3.289-6.24l-4.46-2.572c-2.085-1.205-4.654-1.206-6.74-0.002c-2.086,1.204-3.37,3.429-3.369,5.837
				C356.964,428.194,358.25,430.419,360.336,431.622z M414.993,483.451l-26.697-15.414v-4.929l26.697,15.391V483.451z
				 M414.993,462.952l-26.697-15.391v-47.294c0.001-2.407-1.284-4.632-3.368-5.836l-53.572-30.921
				c-2.084-1.202-4.651-1.201-6.734,0.002c-2.083,1.204-3.366,3.427-3.365,5.833v39.502L294.56,393.41V281.336l57.072,7.509
				l63.362,64.852V462.952z M428.349,348.095l-65.5-67.065l-3.25-3.296c-1.053-1.068-2.433-1.754-3.921-1.947l-74.474-9.789v-12
				l70.408,9.25l76.737,78.579V348.095z M485.158,450.697l-56.69,32.715V367.487l1.803,1.845l0.019,0.013
				c0.589,0.588,1.284,1.059,2.049,1.389c0.123,0.055,0.241,0.101,0.368,0.149c1.512,0.656,3.228,0.66,4.743,0.012
				c0.06-0.023,0.124-0.012,0.183-0.036c0.08-0.033,0.139-0.094,0.217-0.129c0.208-0.074,0.412-0.158,0.612-0.253l46.697-26.965
				L485.158,450.697z M498.527,320.233l-56.704,32.741V342.95l56.704-32.732V320.233z" fill="#0d2049"/>
			<path d="M56.934,142.418c-2.085,1.203-3.369,3.428-3.368,5.836v40.947c-0.001,2.407,1.283,4.632,3.368,5.836l53.539,30.908
				c2.085,1.204,4.653,1.203,6.737,0s3.368-3.428,3.368-5.835v-40.941c0.001-2.407-1.284-4.632-3.368-5.836l-53.539-30.914
				C61.585,141.221,59.02,141.221,56.934,142.418z M107.105,183.056v4.915l-13.296-7.677l0-4.914L107.105,183.056z M93.809,195.855
				l13.296,7.677v4.905l-13.296-7.674V195.855z M67.04,159.924l13.296,7.676v4.913l-13.296-7.677V159.924z M67.04,180.398
				l13.296,7.677v4.912l-13.296-7.674V180.398z" fill="#c40201"/>
			<path d="M251.066,235.378l-53.54-30.908c-2.085-1.203-4.653-1.203-6.737,0c-2.084,1.204-3.368,3.428-3.368,5.835v40.941
				c-0.001,2.407,1.284,4.632,3.368,5.836l53.539,30.914c2.085,1.203,4.653,1.203,6.737,0c2.084-1.204,3.368-3.428,3.368-5.835
				v-40.947C254.435,238.807,253.151,236.582,251.066,235.378z M200.895,247.359v-4.915l13.296,7.677l0,4.914L200.895,247.359z
				 M200.895,226.883v-4.905l13.296,7.674l0,4.908L200.895,226.883z M240.961,270.49l-13.296-7.676v-4.913l13.296,7.677V270.49z
				 M240.961,250.017l-13.296-7.677v-4.912l13.296,7.674V250.017z" fill="#c40201"/>
			<path d="M190.79,127.793c-2.085,1.203-3.369,3.428-3.368,5.836v40.941c-0.001,2.407,1.284,4.632,3.368,5.836l53.54,30.914
				c2.085,1.204,4.653,1.203,6.737,0c2.084-1.204,3.368-3.428,3.368-5.835v-40.94c0.001-2.407-1.284-4.632-3.368-5.836
				l-53.54-30.914C195.44,126.596,192.876,126.596,190.79,127.793z M227.665,160.755l13.296,7.676v4.909l-13.296-7.676V160.755z
				 M227.665,181.225l13.296,7.676v4.912l-13.296-7.676V181.225z M200.895,145.299l13.296,7.676v4.911l-13.296-7.676V145.299z
				 M200.895,165.772l13.296,7.676v4.91l-13.296-7.676V165.772z" fill="#c40201"/>
		</g>
	</g>
</g>
<g>
</g>
<g>
</g>
<g>
</g>
<g>
</g>
<g>
</g>
<g>
</g>
<g>
</g>
<g>
</g>
<g>
</g>
<g>
</g>
<g>
</g>
<g>
</g>
<g>
</g>
<g>
</g>
<g>
</g>
</svg>
