<svg height="512" viewBox="0 0 60 60" width="512" xmlns="http://www.w3.org/2000/svg"><g id="082---House-Sold" transform="translate(-1)"><path id="Shape" d="m56 50v-19c2.1029911.00244 3.9827337-1.3112862 4.7032131-3.2870106.7204794-1.9757245.1276806-4.1911021-1.4832131-5.5429894l-25-21c-1.868198-1.54632392-4.571802-1.54632392-6.44 0l-25 21c-1.61089372 1.3518873-2.20369246 3.5672649-1.48321309 5.5429894.72047936 1.9757244 2.60022194 3.2894506 4.70321309 3.2870106v19c-2.84077036.259301-5.01180974 2.6474443-5 5.5v3.5c0 .5522847.44771525 1 1 1h58c.5522847 0 1-.4477153 1-1v-3.5c.0118097-2.8525557-2.1592296-5.240699-5-5.5zm-52.3-22.07c-.51250271-.6097288-.76149351-1.3982389-.69208743-2.1917192.06940608-.7934804.45151099-1.5267882 1.06208743-2.0382808l25-21c.5266325-.47741988 1.2197596-.72881312 1.93-.7.7321983-.01214359 1.4435535.24394426 2 .72l25 21c.6105764.5114926.9926813 1.2448004 1.0620874 2.0382808.0694061.7934803-.1795847 1.5819904-.6920874 2.1917192-1.0885565 1.2259988-2.9451255 1.3883937-4.23.37l-22.5-18.86c-.3707811-.30883346-.9092189-.30883346-1.28 0l-22.43 18.84c-1.28487454 1.0183937-3.14144348.8559988-4.23-.37zm15.3 30.07h-16v-2.5c.00000003-1.9329966 1.5670034-3.4999999 3.5-3.4999999s3.49999997 1.5670033 3.5 3.4999999c0 .5522847.4477153 1 1 1s1-.4477153 1-1v-3c0-1.9329966 1.5670034-3.4999999 3.5-3.4999999s3.5 1.5670033 3.5 3.4999999zm22-5.5v5.5h-20v-5.5c-.0013437-2.8146743-2.1275004-5.174115-4.9268502-5.4674293-2.7993499-.2933142-5.3684008 1.5741655-5.9531498 4.3274293-.61476568-.5282833-1.33869949-.9141537-2.12-1.13v-19.67c1-.44-.85 1 23-19 23.86 20 22 18.59 23 19v19.67c-.7760551.2163444-1.495942.5984645-2.11 1.12-.6051985-2.7380163-3.1701879-4.5848106-5.9587861-4.2903305-2.7885981.29448-4.911264 2.6362976-4.9312139 5.4403305zm18 5.5h-16v-5.5c-.0276142-1.9329966 1.5170034-3.5223856 3.45-3.5499999 1.9329966-.0276142 3.5223857 1.5170033 3.55 3.4499999v3.1c0 .5522847.4477153 1 1 1s1-.4477153 1-1c.0000001-1.9329966 1.5670034-3.4999999 3.5-3.4999999s3.4999999 1.5670033 3.5 3.4999999z"/><path id="Shape" d="m49 41v-10c0-2.209139-1.790861-4-4-4h-28c-2.209139 0-4 1.790861-4 4v10c0 2.209139 1.790861 4 4 4h28c2.209139 0 4-1.790861 4-4zm-2 0c0 1.1045695-.8954305 2-2 2h-28c-1.1045695 0-2-.8954305-2-2v-10c0-1.1045695.8954305-2 2-2h28c1.1045695 0 2 .8954305 2 2z"/><path id="Shape" d="m19.5 33c.8 0 1.5.47 1.5 1 0 .5522847.4477153 1 1 1 1.95 0 1-4-2.5-4-1.7893339-.1210974-3.3460099 1.2131963-3.5 3 .1539901 1.7868037 1.7106661 3.1210974 3.5 3 .8 0 1.5.47 1.5 1s-.7 1-1.5 1-1.5-.47-1.5-1c0-.5522847-.4477153-1-1-1-1.95 0-1 4 2.5 4 1.7893339.1210974 3.3460099-1.2131963 3.5-3-.1539901-1.7868037-1.7106661-3.1210974-3.5-3-.8 0-1.5-.47-1.5-1s.7-1 1.5-1z"/><path id="Shape" d="m37 39h-3v-7c0-.5522847-.4477153-1-1-1s-1 .4477153-1 1v8c0 .5522847.4477153 1 1 1h4c.5522847 0 1-.4477153 1-1s-.4477153-1-1-1z"/><path id="Shape" d="m42 31h-2c-.5522847 0-1 .4477153-1 1v8c0 .5522847.4477153 1 1 1h2c2.209139 0 4-1.790861 4-4v-2c0-2.209139-1.790861-4-4-4zm2 6c0 1.1045695-.8954305 2-2 2h-1v-6h1c1.1045695 0 2 .8954305 2 2z"/><path id="Shape" d="m28 31h-1c-1.6568542 0-3 1.3431458-3 3v4c0 1.6568542 1.3431458 3 3 3h1c1.6568542 0 3-1.3431458 3-3v-4c0-1.6568542-1.3431458-3-3-3zm1 7c0 .5522847-.4477153 1-1 1h-1c-.5522847 0-1-.4477153-1-1v-4c0-.5522847.4477153-1 1-1h1c.5522847 0 1 .4477153 1 1z"/></g></svg>